<svg width="36" height="36" viewBox="0 0 36 36" fill="none" xmlns="http://www.w3.org/2000/svg">
<path d="M12.88 4H6.01995C4.87672 4 3.94995 4.92677 3.94995 6.07V29.93C3.94995 31.0732 4.87672 32 6.01995 32H12.88C14.0232 32 14.95 31.0732 14.95 29.93V6.07C14.95 4.92677 14.0232 4 12.88 4Z" fill="white"/>
<path d="M29.8799 4H23.02C21.8767 4 20.95 4.92677 20.95 6.07V29.93C20.95 31.0732 21.8767 32 23.02 32H29.8799C31.0232 32 31.95 31.0732 31.95 29.93V6.07C31.95 4.92677 31.0232 4 29.8799 4Z" fill="white"/>
</svg>
