<svg width="20" height="20" viewBox="0 0 20 20" fill="none" xmlns="http://www.w3.org/2000/svg">
<path d="M7 2.5C7 2.36739 7.05268 2.24021 7.14645 2.14645C7.24021 2.05268 7.36739 2 7.5 2H11.5C11.6326 2 11.7598 2.05268 11.8536 2.14645C11.9473 2.24021 12 2.36739 12 2.5C12 2.63261 11.9473 2.75979 11.8536 2.85355C11.7598 2.94732 11.6326 3 11.5 3H7.5C7.36739 3 7.24021 2.94732 7.14645 2.85355C7.05268 2.75979 7 2.63261 7 2.5Z" fill="white"/>
<path d="M14.4501 3.92901C14.5438 3.83558 14.6708 3.78311 14.8031 3.78311C14.9354 3.78311 15.0624 3.83558 15.1561 3.92901L16.5701 5.34301C16.6179 5.38913 16.656 5.4443 16.6822 5.5053C16.7084 5.56631 16.7222 5.63192 16.7227 5.69831C16.7233 5.76469 16.7107 5.83053 16.6855 5.89198C16.6604 5.95343 16.6232 6.00926 16.5763 6.0562C16.5294 6.10315 16.4735 6.14028 16.4121 6.16542C16.3506 6.19056 16.2848 6.20321 16.2184 6.20263C16.152 6.20205 16.0864 6.18826 16.0254 6.16206C15.9644 6.13585 15.9092 6.09776 15.8631 6.05001L14.4501 4.63601C14.3564 4.54224 14.3037 4.41509 14.3037 4.28251C14.3037 4.14992 14.3564 4.02277 14.4501 3.92901V3.92901Z" fill="white"/>
<path d="M16.5 11C16.5 12.8565 15.7625 14.637 14.4497 15.9497C13.137 17.2625 11.3565 18 9.5 18C7.64348 18 5.86301 17.2625 4.55025 15.9497C3.2375 14.637 2.5 12.8565 2.5 11C2.5 9.14348 3.2375 7.36301 4.55025 6.05025C5.86301 4.7375 7.64348 4 9.5 4C11.3565 4 13.137 4.7375 14.4497 6.05025C15.7625 7.36301 16.5 9.14348 16.5 11V11ZM9 6.5V11.5C9 11.6326 9.05268 11.7598 9.14645 11.8536C9.24021 11.9473 9.36739 12 9.5 12C9.63261 12 9.75979 11.9473 9.85355 11.8536C9.94732 11.7598 10 11.6326 10 11.5V6.5C10 6.36739 9.94732 6.24021 9.85355 6.14645C9.75979 6.05268 9.63261 6 9.5 6C9.36739 6 9.24021 6.05268 9.14645 6.14645C9.05268 6.24021 9 6.36739 9 6.5Z" fill="white"/>
</svg>
